<svg width="19" height="19" viewBox="0 0 19 19" xmlns="http://www.w3.org/2000/svg">
<path fill-rule="evenodd" clip-rule="evenodd" d="M0.791504 9.5C0.791504 4.69052 4.69036 0.791672 9.49984 0.791672C14.3093 0.791672 18.2082 4.69052 18.2082 9.5C18.2082 10.3668 17.7093 10.9302 17.1215 11.2708C16.5786 11.5853 15.8884 11.7579 15.2773 11.8902C15.0823 11.9324 14.8937 11.9709 14.7106 12.0083C14.2725 12.0977 13.8665 12.1805 13.4839 12.2918C12.9351 12.4514 12.6205 12.623 12.4674 12.7958L11.8748 12.2708L12.4674 12.7958C12.2411 13.0513 12.096 13.4159 12.0014 13.9134C11.9339 14.2684 11.9023 14.6175 11.8681 14.996C11.8523 15.171 11.8359 15.3522 11.8152 15.5432C11.757 16.079 11.6601 16.7362 11.335 17.2602C11.1605 17.5414 10.9177 17.7909 10.5869 17.9641C10.2605 18.135 9.89286 18.2083 9.49984 18.2083C4.69036 18.2083 0.791504 14.3095 0.791504 9.5ZM9.49984 2.37501C5.56481 2.37501 2.37484 5.56497 2.37484 9.5C2.37484 13.435 5.56481 16.625 9.49984 16.625C9.69661 16.625 9.80022 16.5887 9.8526 16.5613C9.90056 16.5362 9.94406 16.4988 9.98953 16.4255C10.1043 16.2405 10.1818 15.9182 10.2411 15.3722C10.2554 15.241 10.2687 15.0946 10.2828 14.939C10.3201 14.5281 10.3633 14.0523 10.4459 13.6177C10.5639 12.9969 10.7834 12.309 11.2823 11.7459C11.7479 11.2202 12.4354 10.9478 13.0417 10.7715C13.4907 10.6409 13.9967 10.5376 14.4591 10.4432C14.6275 10.4088 14.7902 10.3756 14.9422 10.3427C15.5618 10.2086 16.025 10.0762 16.3278 9.90076C16.5856 9.75135 16.6248 9.63977 16.6248 9.5C16.6248 5.56497 13.4349 2.37501 9.49984 2.37501ZM9.104 5.54167C9.104 4.44859 9.99009 3.56251 11.0832 3.56251C12.1763 3.56251 13.0623 4.44859 13.0623 5.54167C13.0623 6.63475 12.1763 7.52084 11.0832 7.52084C9.99009 7.52084 9.104 6.63475 9.104 5.54167ZM11.0832 5.14584C10.8645 5.14584 10.6873 5.32304 10.6873 5.54167C10.6873 5.7603 10.8645 5.9375 11.0832 5.9375C11.3018 5.9375 11.479 5.7603 11.479 5.54167C11.479 5.32304 11.3018 5.14584 11.0832 5.14584ZM4.354 7.125C4.354 6.03192 5.24009 5.14584 6.33317 5.14584C7.42625 5.14584 8.31234 6.03192 8.31234 7.125C8.31234 8.21809 7.42625 9.10417 6.33317 9.10417C5.24009 9.10417 4.354 8.21809 4.354 7.125ZM6.33317 6.72917C6.11454 6.72917 5.93734 6.90637 5.93734 7.125C5.93734 7.34364 6.11454 7.52084 6.33317 7.52084C6.5518 7.52084 6.729 7.34364 6.729 7.125C6.729 6.90637 6.5518 6.72917 6.33317 6.72917ZM4.74984 12.2708C4.74984 11.1778 5.63592 10.2917 6.729 10.2917C7.82209 10.2917 8.70817 11.1778 8.70817 12.2708C8.70817 13.3639 7.82209 14.25 6.729 14.25C5.63592 14.25 4.74984 13.3639 4.74984 12.2708ZM6.729 11.875C6.51037 11.875 6.33317 12.0522 6.33317 12.2708C6.33317 12.4895 6.51037 12.6667 6.729 12.6667C6.94763 12.6667 7.12484 12.4895 7.12484 12.2708C7.12484 12.0522 6.94763 11.875 6.729 11.875Z" />
</svg>
