<svg width="19" height="19" viewBox="0 0 19 19" xmlns="http://www.w3.org/2000/svg">
<path fill-rule="evenodd" clip-rule="evenodd" d="M5.29725 1.1177C5.44623 0.912861 5.68422 0.791672 5.9375 0.791672H12.2708C12.5241 0.791672 12.7621 0.912864 12.9111 1.1177C12.2645 1.58793 12.2315 1.61196 12.9111 1.1177L12.913 1.12033L12.9159 1.12443L12.9249 1.13696C12.9322 1.14723 12.942 1.16131 12.9543 1.17907C12.9788 1.21458 13.0128 1.26486 13.0543 1.32884C13.1374 1.45669 13.251 1.63987 13.3796 1.86976C13.6359 2.32793 13.9564 2.98018 14.2106 3.75621C14.4568 4.50738 14.6458 5.3897 14.6458 6.33334C14.6458 7.10961 14.4804 7.85453 14.1832 8.53141C13.4319 10.243 11.8286 11.5366 9.89583 11.8179V16.625H13.0625C13.4997 16.625 13.8542 16.9794 13.8542 17.4167C13.8542 17.8539 13.4997 18.2083 13.0625 18.2083H5.14583C4.70861 18.2083 4.35417 17.8539 4.35417 17.4167C4.35417 16.9794 4.70861 16.625 5.14583 16.625H8.3125V11.8189C6.46383 11.5544 4.91052 10.3775 4.12171 8.76179C3.76331 8.02755 3.5625 7.20274 3.5625 6.33334C3.5625 5.2784 3.7988 4.29935 4.08793 3.49317C4.34001 2.79035 4.63768 2.20383 4.87244 1.79232C4.99018 1.58593 5.09308 1.42186 5.16803 1.30732C5.20553 1.25 5.23612 1.20496 5.25818 1.17309C5.26921 1.15715 5.27811 1.14449 5.28469 1.13522L5.29279 1.12388L5.29549 1.12014L5.29649 1.11875L5.29725 1.1177ZM6.36654 2.37501C6.33013 2.43493 6.29021 2.50241 6.24772 2.57689C6.04681 2.92906 5.79229 3.43109 5.57832 4.02768M6.36654 2.37501H11.8418C11.8887 2.45214 11.9413 2.54177 11.9978 2.64273C12.218 3.03639 12.4913 3.59382 12.706 4.2492C12.8617 4.72441 12.9839 5.24271 13.0356 5.78146C12.785 5.85682 12.4611 5.93932 12.0979 5.99667C11.2309 6.13357 10.2667 6.10765 9.51148 5.65449C8.28757 4.92015 6.87671 4.94607 5.86351 5.10605C5.64538 5.14049 5.43976 5.18207 5.25099 5.22626C5.32902 4.80375 5.44473 4.40017 5.57832 4.02768M5.54454 8.06716C5.36567 7.7007 5.24163 7.30228 5.18346 6.882ZM5.18346 6.882C5.43256 6.80752 5.75238 6.72654 6.11045 6.67C6.97745 6.53311 7.94159 6.55903 8.69686 7.01219C9.92076 7.74653 11.3316 7.72061 12.3448 7.56063C12.5396 7.52987 12.7245 7.49342 12.8962 7.45449C12.8507 7.6049 12.7962 7.75194 12.7334 7.89497C12.1186 9.29572 10.7182 10.2917 9.10417 10.2917C7.54126 10.2917 6.18838 9.38591 5.54454 8.06716" />
</svg>
