<svg width="19" height="19" viewBox="0 0 19 19" xmlns="http://www.w3.org/2000/svg">
<path d="M6.33317 9.50001C6.7704 9.50001 7.12484 9.85445 7.12484 10.2917V11.0833H7.9165C8.35373 11.0833 8.70817 11.4378 8.70817 11.875C8.70817 12.3122 8.35373 12.6667 7.9165 12.6667H7.12484V13.4583C7.12484 13.8956 6.7704 14.25 6.33317 14.25C5.89595 14.25 5.5415 13.8956 5.5415 13.4583V12.6667H4.74984C4.31261 12.6667 3.95817 12.3122 3.95817 11.875C3.95817 11.4378 4.31261 11.0833 4.74984 11.0833H5.5415V10.2917C5.5415 9.85445 5.89595 9.50001 6.33317 9.50001Z" />
<path fill-rule="evenodd" clip-rule="evenodd" d="M12.6665 9.50001C11.3548 9.50001 10.2915 10.5633 10.2915 11.875C10.2915 13.1867 11.3548 14.25 12.6665 14.25C13.9782 14.25 15.0415 13.1867 15.0415 11.875C15.0415 10.5633 13.9782 9.50001 12.6665 9.50001ZM11.8748 11.875C11.8748 11.4378 12.2293 11.0833 12.6665 11.0833C13.1037 11.0833 13.4582 11.4378 13.4582 11.875C13.4582 12.3122 13.1037 12.6667 12.6665 12.6667C12.2293 12.6667 11.8748 12.3122 11.8748 11.875Z" />
<path fill-rule="evenodd" clip-rule="evenodd" d="M12.6665 0.791672C13.1037 0.791672 13.4582 1.14611 13.4582 1.58334V3.84524C13.4582 4.28247 13.1037 4.63691 12.6665 4.63691H10.2915V6.33334H12.6665C15.7271 6.33334 18.2082 8.81443 18.2082 11.875C18.2082 14.9356 15.7271 17.4167 12.6665 17.4167H6.33317C3.27259 17.4167 0.791504 14.9356 0.791504 11.875C0.791504 8.81443 3.27259 6.33334 6.33317 6.33334H8.70817V3.84524C8.70817 3.40802 9.06261 3.05358 9.49984 3.05358H11.8748V1.58334C11.8748 1.14611 12.2293 0.791672 12.6665 0.791672ZM6.33317 7.91667C4.14704 7.91667 2.37484 9.68888 2.37484 11.875C2.37484 14.0611 4.14704 15.8333 6.33317 15.8333H12.6665C14.8526 15.8333 16.6248 14.0611 16.6248 11.875C16.6248 9.68888 14.8526 7.91667 12.6665 7.91667H6.33317Z"/>
</svg>
