<svg width="19" height="19" viewBox="0 0 19 19" xmlns="http://www.w3.org/2000/svg">
<path fill-rule="evenodd" clip-rule="evenodd" d="M16.7195 0.961639C16.9099 1.11176 17.021 1.34086 17.021 1.58333V4.78333C17.0212 4.79457 17.0212 4.80578 17.021 4.81696V13.6167C17.021 14.8409 16.0286 15.8333 14.8043 15.8333H13.2606C12.0582 15.8333 11.0835 14.8586 11.0835 13.6562C11.0835 12.4539 12.0582 11.4792 13.2606 11.4792H15.4377V5.80046L7.12516 7.76853V15.2C7.12516 16.4242 6.13272 17.4167 4.9085 17.4167H3.76058C2.55821 17.4167 1.5835 16.442 1.5835 15.2396C1.5835 14.0372 2.55821 13.0625 3.76058 13.0625H5.54183V7.15854C5.54159 7.14731 5.54159 7.13611 5.54183 7.12495V3.95833C5.54183 3.59227 5.79279 3.27395 6.14874 3.18852L16.0446 0.813524C16.2804 0.756937 16.5291 0.81152 16.7195 0.961639ZM7.12516 6.14143L15.4377 4.17336V2.58748L7.12516 4.58248V6.14143ZM5.54183 14.6458H3.76058C3.43266 14.6458 3.16683 14.9117 3.16683 15.2396C3.16683 15.5675 3.43266 15.8333 3.76058 15.8333H4.9085C5.25827 15.8333 5.54183 15.5498 5.54183 15.2V14.6458ZM15.4377 13.0625H13.2606C12.9327 13.0625 12.6668 13.3283 12.6668 13.6562C12.6668 13.9842 12.9327 14.25 13.2606 14.25H14.8043C15.1541 14.25 15.4377 13.9664 15.4377 13.6167V13.0625Z" />
</svg>
