<svg width="19" height="19" viewBox="0 0 19 19" xmlns="http://www.w3.org/2000/svg">
<path fill-rule="evenodd" clip-rule="evenodd" d="M0.791504 9.5C0.791504 4.69053 4.69036 0.791672 9.49984 0.791672C14.3093 0.791672 18.2082 4.69053 18.2082 9.5C18.2082 9.70997 18.1248 9.91133 17.9763 10.0598L10.0596 17.9765C9.75046 18.2856 9.24921 18.2856 8.94004 17.9765L1.02338 10.0598C0.874911 9.91133 0.791504 9.70997 0.791504 9.5ZM2.58464 7.77677C2.60982 7.76189 2.63487 7.74733 2.65978 7.7331C3.12328 7.46824 3.61756 7.26894 4.10211 7.26894C4.58666 7.26894 5.08094 7.46824 5.54444 7.7331C5.87025 7.91928 6.22029 8.16105 6.5932 8.45289C7.49311 7.7031 8.46366 7.26894 9.49984 7.26894C10.536 7.26894 11.5066 7.70309 12.4065 8.45289C12.7794 8.16105 13.1294 7.91928 13.4552 7.7331C13.9187 7.46824 14.413 7.26894 14.8976 7.26894C15.3821 7.26894 15.8764 7.46824 16.3399 7.7331C16.3648 7.74733 16.3899 7.76189 16.415 7.77677C15.6444 4.67432 12.8407 2.37501 9.49984 2.37501C6.15902 2.37501 3.35523 4.67431 2.58464 7.77677ZM16.2341 9.56281C15.9802 9.37249 15.7538 9.22182 15.5543 9.10782C15.1782 8.89288 14.9728 8.85228 14.8976 8.85228C14.8223 8.85228 14.6169 8.89288 14.2408 9.10782C13.9162 9.29329 13.5206 9.57583 13.0507 9.9683L11.4633 14.3336L16.2341 9.56281ZM9.49984 15.1001L11.4555 9.72195C10.7302 9.09888 10.0802 8.85228 9.49984 8.85228C8.91952 8.85228 8.26945 9.09888 7.54414 9.72195L9.49984 15.1001ZM5.94895 9.9683C5.4791 9.57583 5.08347 9.29329 4.75889 9.10782C4.38275 8.89288 4.17732 8.85228 4.10211 8.85228C4.02689 8.85228 3.82147 8.89288 3.44533 9.10782C3.24583 9.22182 3.01949 9.37249 2.76556 9.56281L7.53633 14.3336L5.94895 9.9683Z" />
</svg>
