<svg width="19" height="19" viewBox="0 0 19 19" xmlns="http://www.w3.org/2000/svg">
<path fill-rule="evenodd" clip-rule="evenodd" d="M14.6457 2.37501C13.9898 2.37501 13.4582 2.90667 13.4582 3.56251C13.4582 4.21834 13.9898 4.75001 14.6457 4.75001C15.3015 4.75001 15.8332 4.21834 15.8332 3.56251C15.8332 2.90667 15.3015 2.37501 14.6457 2.37501ZM11.8748 3.56251C11.8748 2.03222 13.1154 0.791672 14.6457 0.791672C16.176 0.791672 17.4165 2.03222 17.4165 3.56251C17.4165 5.09279 16.176 6.33334 14.6457 6.33334C13.1154 6.33334 11.8748 5.09279 11.8748 3.56251ZM7.13181 3.1667C7.44886 3.1695 7.73366 3.36118 7.85561 3.65385L11.0007 11.2022L11.9155 8.45799C12.0132 8.16469 12.2728 7.95513 12.5801 7.9214C12.8874 7.88766 13.1863 8.03592 13.3454 8.30103L18.0954 16.2177C18.2421 16.4623 18.2459 16.7669 18.1054 17.0151C17.9649 17.2633 17.7017 17.4167 17.4165 17.4167H1.58317C1.316 17.4167 1.06686 17.2819 0.920624 17.0583C0.774389 16.8347 0.750796 16.5525 0.857882 16.3077L6.39955 3.64102C6.52663 3.35055 6.81477 3.16391 7.13181 3.1667ZM2.79364 15.8333H16.0183L12.8732 10.5916L11.8342 13.7087C11.7298 14.0219 11.442 14.2374 11.1121 14.2495C10.7822 14.2615 10.4794 14.0676 10.3524 13.7628L7.10708 5.97405L2.79364 15.8333Z" />
</svg>
