<svg width="19" height="19" viewBox="0 0 19 19" xmlns="http://www.w3.org/2000/svg">
<path fill-rule="evenodd" clip-rule="evenodd" d="M9.49984 2.77083C7.31371 2.77083 5.5415 4.54304 5.5415 6.72917C5.5415 6.74789 5.54163 6.76657 5.54189 6.78523C5.80033 6.74828 6.06452 6.72917 6.33317 6.72917C7.51064 6.72917 8.60233 7.09639 9.49998 7.72256C10.3976 7.09651 11.4892 6.72936 12.6665 6.72936C12.9352 6.72936 13.1993 6.74848 13.4578 6.78543C13.458 6.76671 13.4582 6.74795 13.4582 6.72917C13.4582 4.54304 11.686 2.77083 9.49984 2.77083ZM15.0172 7.2512C15.0333 7.07935 15.0415 6.90522 15.0415 6.72917C15.0415 3.66859 12.5604 1.1875 9.49984 1.1875C6.43926 1.1875 3.95817 3.66859 3.95817 6.72917C3.95817 6.90515 3.96637 7.07922 3.98242 7.25101C2.09711 8.13542 0.791504 10.0507 0.791504 12.2708C0.791504 15.3314 3.27259 17.8125 6.33317 17.8125C7.51051 17.8125 8.6021 17.4454 9.4997 16.8193C10.3973 17.4455 11.489 17.8127 12.6665 17.8127C15.7271 17.8127 18.2082 15.3316 18.2082 12.271C18.2082 10.0508 16.9026 8.1356 15.0172 7.2512ZM13.1175 8.33811C12.9695 8.32132 12.819 8.3127 12.6665 8.3127C11.9455 8.3127 11.2695 8.50548 10.6872 8.84231C11.0033 9.24313 11.2652 9.68864 11.4619 10.1678C12.1904 9.75123 12.7738 9.10981 13.1175 8.33811ZM11.8506 11.749C13.1037 11.1611 14.1007 10.1179 14.6285 8.83236C15.8211 9.51429 16.6248 10.7988 16.6248 12.271C16.6248 14.4572 14.8526 16.2294 12.6665 16.2294C11.9454 16.2294 11.2693 16.0365 10.687 15.6996C11.4309 14.7563 11.8748 13.5654 11.8748 12.2708C11.8748 12.0948 11.8666 11.9208 11.8506 11.749ZM9.95092 10.6621C9.82923 10.3888 9.6775 10.1319 9.49991 9.89555C9.3223 10.1319 9.17055 10.3888 9.04884 10.6621C9.19685 10.6789 9.34734 10.6875 9.49984 10.6875C9.65237 10.6875 9.80288 10.6789 9.95092 10.6621ZM8.70856 12.2148C8.967 12.2517 9.23118 12.2708 9.49984 12.2708C9.76849 12.2708 10.0327 12.2517 10.2911 12.2148C10.2914 12.2334 10.2915 12.2521 10.2915 12.2708C10.2915 13.1622 9.9969 13.9847 9.49976 14.6463C9.00271 13.9847 8.70817 13.1623 8.70817 12.271C8.70817 12.2522 8.7083 12.2335 8.70856 12.2148ZM7.53788 10.1678C7.7346 9.68863 7.99655 9.24308 8.31265 8.84224C7.73036 8.50533 7.05429 8.3125 6.33317 8.3125C6.18064 8.3125 6.03013 8.32113 5.88209 8.33792C6.22581 9.10973 6.80927 9.75123 7.53788 10.1678ZM4.37114 8.8322C4.89887 10.1178 5.89592 11.1611 7.1491 11.749C7.13305 11.9209 7.12484 12.095 7.12484 12.271C7.12484 13.5655 7.56866 14.7563 8.31244 15.6996C7.7302 16.0364 7.0542 16.2292 6.33317 16.2292C4.14704 16.2292 2.37484 14.457 2.37484 12.2708C2.37484 10.7986 3.17855 9.51414 4.37114 8.8322Z" />
</svg>
